<svg height="512" viewBox="0 0 64 64" width="512" xmlns="http://www.w3.org/2000/svg"><g id="Flat"><g id="Color"><g><path d="m45 3-14 7-3 10-14 9-6 26h48l-10-23 1-13-6-8z" fill="#656b76"/><path d="m28.186 49a10 10 0 0 1 -9.744-12.249 17.034 17.034 0 0 1 7.386-10.5l8.172-5.251 3-10 5.333-2.667 2.667-5.333-14 7-3 10-14 9-6 26h48l-2.609-6z" fill="#464a51"/><path d="m3 55h58a0 0 0 0 1 0 0 6 6 0 0 1 -6 6h-46a6 6 0 0 1 -6-6 0 0 0 0 1 0 0z" fill="#656b76"/><path d="m16 40 7 5 4-4 4 4 4-4 5 4 5-4-2 9-7-3-4 4-5-4-6 3z" fill="#fcbc04"/><path d="m35 35 5-5 2 6z" fill="#fcbc04"/><path d="m29 35-5-5-2 6z" fill="#fcbc04"/><path d="m10 58a3 3 0 0 1 -3-3h-4a6 6 0 0 0 6 6h46a5.992 5.992 0 0 0 5.191-3z" fill="#464a51"/><g fill="#e59730"><path d="m23 48 4-4 4 4 4-4 5 4 4.189-3.351.811-3.649-5 4-5-4-4 4-4-4-4 4-7-5 2.333 4.667z"/><g><path d="m34 49h-4.5l2.5 2z"/><path d="m24.458 48.271a10.035 10.035 0 0 1 -5.841-6.4l-2.617-1.871 5 10z"/><path d="m43.222 49h-2.555l2.333 1z"/></g><path d="m42 36-2-6-1.75 1.75 1.3 3.9z"/><path d="m24 30-.75 2.25 3.125 3.125 2.625-.375z"/></g></g></g></g></svg>